<?xml version="1.0" encoding="utf-8"?>
<!-- Generator: Adobe Illustrator 21.0.0, SVG Export Plug-In . SVG Version: 6.00 Build 0)  -->
<svg version="1.1" id="Layer_2" xmlns="http://www.w3.org/2000/svg" xmlns:xlink="http://www.w3.org/1999/xlink" x="0px" y="0px"
	 viewBox="0 0 1200 900" style="enable-background:new 0 0 1200 900;" xml:space="preserve">
<style type="text/css">
	.st0{fill:#15324C;}
	.st1{font-family:'GeBody';}
	.st2{font-size:27.9377px;}
	.st3{letter-spacing:1;}
	.st4{font-size:19.9377px;}
	.st5{letter-spacing:8;}
	.st6{fill:none;}
	.st7{fill:#00B27B;}
	.st8{fill:#136375;}
	.st9{fill:#0092D3;}
	.st10{fill:#7ED333;}
	.st11{opacity:0.21;}
</style>
<text transform="matrix(1 0 0 1 460.0847 662.4548)"><tspan x="0" y="0" class="st0 st1 st2 st3">Open Cybersecurity</tspan><tspan x="82.5" y="26.8" class="st0 st1 st4 st5">Alliance</tspan></text>
<path class="st6" d="M561.5,558c-12,0-21.8,9.7-21.8,20.4c0,13.3,9.8,23.1,21.8,23.1c12,0,21.8-9.7,21.8-23.1
	C583.3,567.8,573.5,558,561.5,558z"/>
<path class="st7" d="M593.9,552.4c-8.1-8.7-20-13.8-32.5-13.8c-22.3,0-42.8,16.4-42.8,39.8c0,25,17.9,42.7,42.8,42.7
	c13.3,0,24.7-5.1,32.4-13.7c-7.2-7.4-10.5-16.8-10.5-27.4C583.3,569.7,587,559.8,593.9,552.4z M561.5,601.5
	c-12,0-21.8-9.7-21.8-23.1c0-10.7,9.8-20.4,21.8-20.4c12,0,21.8,9.7,21.8,20.4C583.3,591.8,573.5,601.5,561.5,601.5z"/>
<path class="st8" d="M593.9,552.4c-6.9,7.5-10.7,17.3-10.7,27.5c0,10.6,3.3,20,10.5,27.4c6.6-7.4,10.4-17.4,10.4-28.9
	C604.2,568.1,600.3,559.1,593.9,552.4z"/>
<path class="st9" d="M683.2,541.1h-21.9l-12,31.2c-0.4,0.9-0.7,1.8-1.1,2.9c-9.2,24.5-18,25.3-21.6,25.8c-0.5,0-0.9,0.1-1.4,0.1
	c-12.5,0-20.9-8.8-20.9-21c0-12,8.3-21.4,20.6-21.4h20v-19.5h-20v0c-0.2,0-0.5,0-0.7,0c-10.9,0-21.8,4.7-29.4,12.5
	c-0.3,0.3-0.5,0.5-0.7,0.8c6.3,6.8,10.3,15.7,10.3,26c0,11.6-3.8,21.5-10.4,28.9c0.6,0.6,1.2,1.2,1.9,1.8c8,7.3,18.3,11.4,29,11.4
	c2.7,0,5.3-0.2,7.9-0.8c10.5-1.6,17.9-8.1,22.8-14.6c3.3-4.6,6.3-11.1,8.9-17.4l0.1-0.4c4.5-11.2,7.7-22.2,7.7-22.2l12.8,36.6h-24
	l27.2,8.9l24.2,7.9L683.2,541.1z"/>
<path class="st10" d="M609.5,569.8v1.9c8.9,1.1,14.9,3.2,14.9,5.6c0,3.6-13.7,6.6-30.5,6.6c-16.8,0-30.5-2.9-30.5-6.6
	c0-2.4,5.8-4.4,14.4-5.6v-1.9c-13.5,2-22.9,6.4-22.9,11.5c0,7,17.5,12.7,39,12.7c21.5,0,39-5.7,39-12.7
	C632.9,576.2,623.3,571.7,609.5,569.8z"/>
<path class="st6" d="M567.6,595.5c0,0,22.8,8,53.5,0c-9-6.8-9-6.8-9-6.8h-40.5"/>
<path class="st11" d="M608.6,593.1c-2.1,0.3-4.4,0.5-6.7,0.6c-2.5,0.2-5.1,0.3-7.7,0.3c-2.9,0-5.7-0.1-8.4-0.3
	c-2.4-0.2-4.7-0.4-6.9-0.7c-1.2,1.6-2.7,3-4.3,4.2c3.4,0.7,7.9,1.4,13.4,1.7c3.5,0.2,7.5,0.2,11.7,0l0,0c4.1-0.2,8.6-0.7,13.3-1.6
	C611.3,596.2,609.8,594.8,608.6,593.1z"/>
</svg>
